REM DIRINDEX 1\3,1\2\4,1\2\5,1\2\6
REM DIRNAME cjc137,folder01,folder02,folder03,folder04,folder05
TITLE ""
FILE "060.mp3" MP3
  TRACK 01 AUDIO
    TITLE "4:cjc137_2444"
    INDEX 01 00:00:00
  TRACK 02 AUDIO
    TITLE "0:"
    INDEX 01 00:01:15
  TRACK 03 AUDIO
    TITLE "6:cjc137_2445"
    INDEX 01 00:01:22
  TRACK 04 AUDIO
    TITLE "0:"
    INDEX 01 00:02:12
  TRACK 05 AUDIO
    TITLE "5:cjc137_2446"
    INDEX 01 00:02:16
  TRACK 06 AUDIO
    TITLE "0:"
    INDEX 01 00:03:33
  TRACK 07 AUDIO
    TITLE "4:cjc137_2447"
    INDEX 01 00:04:38
  TRACK 08 AUDIO
    TITLE "0:"
    INDEX 01 00:05:42
  TRACK 09 AUDIO
    TITLE "6:cjc137_2448"
    INDEX 01 00:05:52
  TRACK 10 AUDIO
    TITLE "0:"
    INDEX 01 00:06:63
  TRACK 11 AUDIO
    TITLE "5:cjc137_2449"
    INDEX 01 00:06:71
  TRACK 12 AUDIO
    TITLE "0:"
    INDEX 01 00:08:01
  TRACK 13 AUDIO
    TITLE "4:cjc137_2450"
    INDEX 01 00:09:10
  TRACK 14 AUDIO
    TITLE "0:"
    INDEX 01 00:10:31
  TRACK 15 AUDIO
    TITLE "6:cjc137_2451"
    INDEX 01 00:10:37
  TRACK 16 AUDIO
    TITLE "0:"
    INDEX 01 00:11:58
  TRACK 17 AUDIO
    TITLE "5:cjc137_2452"
    INDEX 01 00:11:64
  TRACK 18 AUDIO
    TITLE "0:"
    INDEX 01 00:13:10
  TRACK 19 AUDIO
    TITLE "4:cjc137_2453"
    INDEX 01 00:14:15
  TRACK 20 AUDIO
    TITLE "0:"
    INDEX 01 00:15:48
  TRACK 21 AUDIO
    TITLE "6:cjc137_2454"
    INDEX 01 00:15:54
  TRACK 22 AUDIO
    TITLE "0:"
    INDEX 01 00:17:04
  TRACK 23 AUDIO
    TITLE "5:cjc137_2455"
    INDEX 01 00:17:10
  TRACK 24 AUDIO
    TITLE "0:"
    INDEX 01 00:18:39
  TRACK 25 AUDIO
    TITLE "4:cjc137_2456"
    INDEX 01 00:19:48
  TRACK 26 AUDIO
    TITLE "0:"
    INDEX 01 00:20:53
  TRACK 27 AUDIO
    TITLE "6:cjc137_2457"
    INDEX 01 00:20:61
  TRACK 28 AUDIO
    TITLE "0:"
    INDEX 01 00:22:03
  TRACK 29 AUDIO
    TITLE "5:cjc137_2458"
    INDEX 01 00:22:09
  TRACK 30 AUDIO
    TITLE "0:"
    INDEX 01 00:23:14
  TRACK 31 AUDIO
    TITLE "4:cjc137_2459"
    INDEX 01 00:24:22
  TRACK 32 AUDIO
    TITLE "0:"
    INDEX 01 00:25:29
  TRACK 33 AUDIO
    TITLE "6:cjc137_2460"
    INDEX 01 00:25:39
  TRACK 34 AUDIO
    TITLE "0:"
    INDEX 01 00:26:32
  TRACK 35 AUDIO
    TITLE "5:cjc137_2461"
    INDEX 01 00:26:38
  TRACK 36 AUDIO
    TITLE "0:"
    INDEX 01 00:27:47
  TRACK 37 AUDIO
    TITLE "4:cjc137_2462"
    INDEX 01 00:28:55
  TRACK 38 AUDIO
    TITLE "0:"
    INDEX 01 00:29:58
  TRACK 39 AUDIO
    TITLE "6:cjc137_2463"
    INDEX 01 00:29:64
  TRACK 40 AUDIO
    TITLE "0:"
    INDEX 01 00:31:04
  TRACK 41 AUDIO
    TITLE "5:cjc137_2464"
    INDEX 01 00:31:12
  TRACK 42 AUDIO
    TITLE "0:"
    INDEX 01 00:32:15
  TRACK 43 AUDIO
    TITLE "4:cjc137_2465"
    INDEX 01 00:33:22
  TRACK 44 AUDIO
    TITLE "0:"
    INDEX 01 00:34:30
  TRACK 45 AUDIO
    TITLE "6:cjc137_2466"
    INDEX 01 00:34:38
  TRACK 46 AUDIO
    TITLE "0:"
    INDEX 01 00:35:55
  TRACK 47 AUDIO
    TITLE "5:cjc137_2467"
    INDEX 01 00:35:64
  TRACK 48 AUDIO
    TITLE "0:"
    INDEX 01 00:36:72
  TRACK 49 AUDIO
    TITLE "4:cjc137_2468"
    INDEX 01 00:38:06
  TRACK 50 AUDIO
    TITLE "0:"
    INDEX 01 00:39:13
  TRACK 51 AUDIO
    TITLE "6:cjc137_2469"
    INDEX 01 00:39:21
  TRACK 52 AUDIO
    TITLE "0:"
    INDEX 01 00:40:17
  TRACK 53 AUDIO
    TITLE "5:cjc137_2470"
    INDEX 01 00:40:24
  TRACK 54 AUDIO
    TITLE "0:"
    INDEX 01 00:41:32
  TRACK 55 AUDIO
    TITLE "4:cjc137_2471"
    INDEX 01 00:42:41
  TRACK 56 AUDIO
    TITLE "0:"
    INDEX 01 00:43:40
  TRACK 57 AUDIO
    TITLE "6:cjc137_2472"
    INDEX 01 00:43:60
  TRACK 58 AUDIO
    TITLE "0:"
    INDEX 01 00:44:44
  TRACK 59 AUDIO
    TITLE "5:cjc137_2473"
    INDEX 01 00:44:54
  TRACK 60 AUDIO
    TITLE "0:"
    INDEX 01 00:45:51
  TRACK 61 AUDIO
    TITLE "4:cjc137_2474"
    INDEX 01 00:46:72
  TRACK 62 AUDIO
    TITLE "0:"
    INDEX 01 00:47:72
  TRACK 63 AUDIO
    TITLE "6:cjc137_2475"
    INDEX 01 00:48:04
  TRACK 64 AUDIO
    TITLE "0:"
    INDEX 01 00:48:71
  TRACK 65 AUDIO
    TITLE "5:cjc137_2476"
    INDEX 01 00:49:02
  TRACK 66 AUDIO
    TITLE "0:"
    INDEX 01 00:50:05
  TRACK 67 AUDIO
    TITLE "4:cjc137_2477"
    INDEX 01 00:51:11
  TRACK 68 AUDIO
    TITLE "0:"
    INDEX 01 00:52:16
  TRACK 69 AUDIO
    TITLE "6:cjc137_2478"
    INDEX 01 00:52:24
  TRACK 70 AUDIO
    TITLE "0:"
    INDEX 01 00:53:15
  TRACK 71 AUDIO
    TITLE "5:cjc137_2479"
    INDEX 01 00:53:23
  TRACK 72 AUDIO
    TITLE "0:"
    INDEX 01 00:54:30
  TRACK 73 AUDIO
    TITLE "4:cjc137_2480"
    INDEX 01 00:55:36
  TRACK 74 AUDIO
    TITLE "0:"
    INDEX 01 00:56:51
  TRACK 75 AUDIO
    TITLE "6:cjc137_2481"
    INDEX 01 00:56:57
  TRACK 76 AUDIO
    TITLE "0:"
    INDEX 01 00:57:72
  TRACK 77 AUDIO
    TITLE "5:cjc137_2482"
    INDEX 01 00:58:03
  TRACK 78 AUDIO
    TITLE "0:"
    INDEX 01 00:59:18
  TRACK 79 AUDIO
    TITLE "4:cjc137_2483"
    INDEX 01 01:00:27
  TRACK 80 AUDIO
    TITLE "0:"
    INDEX 01 01:01:19
  TRACK 81 AUDIO
    TITLE "6:cjc137_2484"
    INDEX 01 01:01:29
  TRACK 82 AUDIO
    TITLE "0:"
    INDEX 01 01:02:36
  TRACK 83 AUDIO
    TITLE "5:cjc137_2485"
    INDEX 01 01:02:46
  TRACK 84 AUDIO
    TITLE "0:"
    INDEX 01 01:03:41
